<svg width="315" height="56" viewBox="0 0 315 56" fill="none" xmlns="http://www.w3.org/2000/svg">
<g clip-path="url(#clip0_42_6)">
<path d="M1.75 45.4632C1.75 47.7839 2.67187 50.0095 4.31282 51.6504C5.12533 52.4629 6.08992 53.1075 7.15152 53.5472C8.21312 53.9869 9.35093 54.2132 10.5 54.2132H45.5C47.8206 54.2132 50.0462 53.2914 51.6872 51.6504C53.3281 50.0095 54.25 47.7839 54.25 45.4632H1.75Z" fill="#E29460"/>
<path d="M45.5 52.4632H10.5C8.48316 52.4633 6.52823 51.7665 4.96599 50.491C3.40375 49.2154 2.33012 47.4393 1.92675 45.4632H1.75C1.75 47.7839 2.67187 50.0095 4.31282 51.6504C5.12533 52.4629 6.08992 53.1075 7.15152 53.5472C8.21312 53.9869 9.35093 54.2132 10.5 54.2132H45.5C47.8206 54.2132 50.0462 53.2914 51.6872 51.6504C53.3281 50.0095 54.25 47.7839 54.25 45.4632H54.0732C53.6699 47.4393 52.5962 49.2154 51.034 50.491C49.4718 51.7665 47.5168 52.4633 45.5 52.4632Z" fill="black"/>
<path d="M52.5 33.2132H3.5C2.57174 33.2132 1.6815 33.582 1.02513 34.2384C0.368749 34.8948 0 35.785 0 36.7132C0 37.6415 0.368749 38.5317 1.02513 39.1881C1.6815 39.8445 2.57174 40.2132 3.5 40.2132H52.5C53.4283 40.2132 54.3185 39.8445 54.9749 39.1881C55.6312 38.5317 56 37.6415 56 36.7132C56 35.785 55.6312 34.8948 54.9749 34.2384C54.3185 33.582 53.4283 33.2132 52.5 33.2132Z" fill="#EF4D4D"/>
<path d="M52.5 38.4632H3.5C2.72578 38.4616 1.97402 38.203 1.36271 37.7279C0.751411 37.2528 0.315181 36.5881 0.1225 35.8382C0.05075 36.1217 0 36.4105 0 36.7132C0 37.6415 0.368749 38.5317 1.02513 39.1881C1.6815 39.8445 2.57174 40.2132 3.5 40.2132H52.5C53.4283 40.2132 54.3185 39.8445 54.9749 39.1881C55.6312 38.5317 56 37.6415 56 36.7132C56 36.4087 55.9492 36.12 55.8775 35.8382C55.6851 36.5883 55.2489 37.2531 54.6376 37.7282C54.0262 38.2034 53.2743 38.4619 52.5 38.4632Z" fill="black"/>
<path d="M52.5 19.2132H3.5C2.57174 19.2132 1.6815 19.582 1.02513 20.2384C0.368749 20.8948 0 21.785 0 22.7132C0 23.6415 0.368749 24.5317 1.02513 25.1881C1.6815 25.8445 2.57174 26.2132 3.5 26.2132H52.5C53.4283 26.2132 54.3185 25.8445 54.9749 25.1881C55.6312 24.5317 56 23.6415 56 22.7132C56 21.785 55.6312 20.8948 54.9749 20.2384C54.3185 19.582 53.4283 19.2132 52.5 19.2132Z" fill="#EF4D4D"/>
<path d="M52.5 24.4632H3.5C2.72578 24.4616 1.97402 24.203 1.36271 23.7279C0.751411 23.2528 0.315181 22.5881 0.1225 21.8382C0.05075 22.1217 0 22.4105 0 22.7132C0 23.6415 0.368749 24.5317 1.02513 25.1881C1.6815 25.8445 2.57174 26.2132 3.5 26.2132H52.5C53.4283 26.2132 54.3185 25.8445 54.9749 25.1881C55.6312 24.5317 56 23.6415 56 22.7132C56 22.4087 55.9492 22.12 55.8775 21.8382C55.6851 22.5883 55.2489 23.2531 54.6376 23.7282C54.0262 24.2034 53.2743 24.4619 52.5 24.4632Z" fill="black"/>
<path d="M1.75 41.9632H54.25V43.7132H1.75V41.9632Z" fill="#469FCC"/>
<path d="M1.75 27.9632H54.25V31.4632H1.75V27.9632Z" fill="#EDD87E"/>
<path d="M22.1497 41.839L15.2372 48.7515C15.0749 48.9142 14.882 49.0432 14.6697 49.1312C14.4574 49.2193 14.2298 49.2646 14 49.2646C13.7702 49.2646 13.5426 49.2193 13.3303 49.1312C13.118 49.0432 12.9251 48.9142 12.7627 48.7515L5.85025 41.839H4.5255L12.887 50.2005C13.0494 50.3632 13.2422 50.4922 13.4545 50.5802C13.6668 50.6683 13.8944 50.7136 14.1242 50.7136C14.3541 50.7136 14.5817 50.6683 14.794 50.5802C15.0063 50.4922 15.1991 50.3632 15.3615 50.2005L23.723 41.839H22.1497Z" fill="black"/>
<path d="M12.7628 48.7515C12.9251 48.9142 13.118 49.0432 13.3303 49.1312C13.5426 49.2193 13.7702 49.2646 14 49.2646C14.2298 49.2646 14.4574 49.2193 14.6697 49.1312C14.882 49.0432 15.0749 48.9142 15.2373 48.7515L22.1497 41.839H5.85025L12.7628 48.7515ZM31.199 41.839L36.2373 46.8773C36.3996 47.0399 36.5925 47.1689 36.8048 47.257C37.0171 47.345 37.2447 47.3904 37.4745 47.3904C37.7043 47.3904 37.9319 47.345 38.1442 47.257C38.3565 47.1689 38.5494 47.0399 38.7118 46.8773L43.75 41.839H31.199Z" fill="#EDD87E"/>
<path d="M43.75 41.839L38.7118 46.8773C38.5494 47.0399 38.3565 47.1689 38.1442 47.257C37.9319 47.345 37.7043 47.3904 37.4745 47.3904C37.2447 47.3904 37.0171 47.345 36.8048 47.257C36.5925 47.1689 36.3996 47.0399 36.2373 46.8773L31.199 41.839H29.8742L36.3615 48.3263C36.5239 48.4889 36.7167 48.618 36.929 48.706C37.1413 48.794 37.3689 48.8394 37.5988 48.8394C37.8286 48.8394 38.0562 48.794 38.2685 48.706C38.4808 48.618 38.6736 48.4889 38.836 48.3263L45.3232 41.839H43.75ZM50.75 20.9632C47.6 20.9632 45.5 17.4632 45.5 17.4632C45.5 17.4632 42 20.9632 36.75 20.9632C31.5 20.9632 28 17.4632 28 17.4632C28 17.4632 25.9 20.9632 22.75 20.9632C19.6 20.9632 17.5 17.4632 17.5 17.4632C17.5 17.4632 14 20.9632 8.75 20.9632C3.5 20.9632 0 17.4632 0 17.4632V19.2132C0 19.2132 3.5 22.7133 8.75 22.7133C14 22.7133 17.5 19.2132 17.5 19.2132C17.5 19.2132 19.6 22.7133 22.75 22.7133C25.9 22.7133 28 19.2132 28 19.2132C28 19.2132 31.5 22.7133 36.75 22.7133C42 22.7133 45.5 19.2132 45.5 19.2132C45.5 19.2132 47.6 22.7133 50.75 22.7133C53.9 22.7133 56 19.2132 56 19.2132V17.4632C56 17.4632 53.9 20.9632 50.75 20.9632Z" fill="black"/>
<path d="M28.007 1.71325C14.007 1.71325 1.757 6.96325 1.757 13.9633H54.257C54.257 6.96325 42.007 1.71325 28.007 1.71325Z" fill="#E29460"/>
<path d="M38.507 7.83825C38.507 8.07032 38.5992 8.29288 38.7633 8.45697C38.9274 8.62106 39.1499 8.71325 39.382 8.71325C39.6141 8.71325 39.8366 8.62106 40.0007 8.45697C40.1648 8.29288 40.257 8.07032 40.257 7.83825C40.257 7.60619 40.1648 7.38363 40.0007 7.21953C39.8366 7.05544 39.6141 6.96325 39.382 6.96325C39.1499 6.96325 38.9274 7.05544 38.7633 7.21953C38.5992 7.38363 38.507 7.60619 38.507 7.83825Z" fill="black"/>
<path d="M31.507 6.08825C31.507 6.32032 31.5992 6.54288 31.7633 6.70697C31.9274 6.87106 32.1499 6.96325 32.382 6.96325C32.6141 6.96325 32.8366 6.87106 33.0007 6.70697C33.1648 6.54288 33.257 6.32032 33.257 6.08825C33.257 5.85619 33.1648 5.63363 33.0007 5.46953C32.8366 5.30544 32.6141 5.21325 32.382 5.21325C32.1499 5.21325 31.9274 5.30544 31.7633 5.46953C31.5992 5.63363 31.507 5.85619 31.507 6.08825Z" fill="black"/>
<path d="M22.757 9.58825C22.757 9.82031 22.8492 10.0429 23.0133 10.207C23.1774 10.3711 23.3999 10.4632 23.632 10.4632C23.8641 10.4632 24.0866 10.3711 24.2507 10.207C24.4148 10.0429 24.507 9.82031 24.507 9.58825C24.507 9.35618 24.4148 9.13363 24.2507 8.96953C24.0866 8.80544 23.8641 8.71325 23.632 8.71325C23.3999 8.71325 23.1774 8.80544 23.0133 8.96953C22.8492 9.13363 22.757 9.35618 22.757 9.58825Z" fill="black"/>
<path d="M24.507 6.08825C24.507 6.32032 24.5992 6.54288 24.7633 6.70697C24.9274 6.87106 25.1499 6.96325 25.382 6.96325C25.6141 6.96325 25.8366 6.87106 26.0007 6.70697C26.1648 6.54288 26.257 6.32032 26.257 6.08825C26.257 5.85619 26.1648 5.63363 26.0007 5.46953C25.8366 5.30544 25.6141 5.21325 25.382 5.21325C25.1499 5.21325 24.9274 5.30544 24.7633 5.46953C24.5992 5.63363 24.507 5.85619 24.507 6.08825Z" fill="black"/>
<path d="M14.007 6.08825C14.007 6.32032 14.0992 6.54288 14.2633 6.70697C14.4274 6.87106 14.6499 6.96325 14.882 6.96325C15.1141 6.96325 15.3366 6.87106 15.5007 6.70697C15.6648 6.54288 15.757 6.32032 15.757 6.08825C15.757 5.85619 15.6648 5.63363 15.5007 5.46953C15.3366 5.30544 15.1141 5.21325 14.882 5.21325C14.6499 5.21325 14.4274 5.30544 14.2633 5.46953C14.0992 5.63363 14.007 5.85619 14.007 6.08825Z" fill="black"/>
<path d="M47.25 12.2132C42 12.2132 38.5 15.7132 38.5 15.7132C38.5 15.7132 36.4 12.2132 33.25 12.2132C30.1 12.2132 28 15.7132 28 15.7132C28 15.7132 24.5 12.2132 19.25 12.2132C14 12.2132 10.5 15.7132 10.5 15.7132C10.5 15.7132 8.4 12.2132 5.25 12.2132C2.1 12.2132 0 15.7132 0 15.7132V17.4632C0 17.4632 3.5 20.9632 8.75 20.9632C14 20.9632 17.5 17.4632 17.5 17.4632C17.5 17.4632 19.6 20.9632 22.75 20.9632C25.9 20.9632 28 17.4632 28 17.4632C28 17.4632 31.5 20.9632 36.75 20.9632C42 20.9632 45.5 17.4632 45.5 17.4632C45.5 17.4632 47.6 20.9632 50.75 20.9632C53.9 20.9632 56 17.4632 56 17.4632V15.7132C56 15.7132 52.5 12.2132 47.25 12.2132Z" fill="#3AAD73"/>
</g>
<path d="M95.7216 14.8182V41H88.7159V20.4432H79.8693V41H72.8636V14.8182H95.7216ZM109.781 41.358C107.684 41.358 105.877 40.9574 104.36 40.1562C102.852 39.3466 101.689 38.1875 100.87 36.679C100.061 35.1619 99.6559 33.3466 99.6559 31.233C99.6559 29.2045 100.065 27.4318 100.883 25.9148C101.701 24.3977 102.856 23.2173 104.348 22.3736C105.839 21.5298 107.599 21.108 109.627 21.108C111.11 21.108 112.453 21.3381 113.654 21.7983C114.856 22.2585 115.883 22.9276 116.735 23.8054C117.588 24.6747 118.244 25.7315 118.704 26.9759C119.164 28.2202 119.395 29.6222 119.395 31.1818V32.8182H101.855V28.9318H112.9C112.892 28.3693 112.747 27.875 112.466 27.4489C112.193 27.0142 111.822 26.6776 111.353 26.4389C110.893 26.1918 110.369 26.0682 109.781 26.0682C109.21 26.0682 108.686 26.1918 108.208 26.4389C107.731 26.6776 107.348 27.0099 107.058 27.4361C106.777 27.8622 106.627 28.3608 106.61 28.9318V33.125C106.61 33.7557 106.743 34.3182 107.007 34.8125C107.271 35.3068 107.65 35.6946 108.145 35.9759C108.639 36.2571 109.235 36.3977 109.934 36.3977C110.42 36.3977 110.863 36.3295 111.264 36.1932C111.673 36.0568 112.022 35.8608 112.312 35.6051C112.602 35.3409 112.815 35.0256 112.951 34.6591H119.395C119.173 36.0227 118.649 37.2074 117.822 38.2131C116.995 39.2102 115.9 39.9858 114.537 40.5398C113.181 41.0852 111.596 41.358 109.781 41.358ZM120.951 26.6307V21.3636H139.974V26.6307H133.735V41H127.087V26.6307H120.951ZM151.511 41.358C149.415 41.358 147.608 40.9574 146.091 40.1562C144.582 39.3466 143.419 38.1875 142.601 36.679C141.791 35.1619 141.386 33.3466 141.386 31.233C141.386 29.2045 141.795 27.4318 142.614 25.9148C143.432 24.3977 144.587 23.2173 146.078 22.3736C147.57 21.5298 149.33 21.108 151.358 21.108C152.841 21.108 154.183 21.3381 155.385 21.7983C156.587 22.2585 157.614 22.9276 158.466 23.8054C159.318 24.6747 159.974 25.7315 160.435 26.9759C160.895 28.2202 161.125 29.6222 161.125 31.1818V32.8182H143.585V28.9318H154.631C154.622 28.3693 154.477 27.875 154.196 27.4489C153.923 27.0142 153.553 26.6776 153.084 26.4389C152.624 26.1918 152.099 26.0682 151.511 26.0682C150.94 26.0682 150.416 26.1918 149.939 26.4389C149.462 26.6776 149.078 27.0099 148.788 27.4361C148.507 27.8622 148.358 28.3608 148.341 28.9318V33.125C148.341 33.7557 148.473 34.3182 148.737 34.8125C149.001 35.3068 149.381 35.6946 149.875 35.9759C150.369 36.2571 150.966 36.3977 151.665 36.3977C152.151 36.3977 152.594 36.3295 152.994 36.1932C153.403 36.0568 153.753 35.8608 154.043 35.6051C154.332 35.3409 154.545 35.0256 154.682 34.6591H161.125C160.903 36.0227 160.379 37.2074 159.553 38.2131C158.726 39.2102 157.631 39.9858 156.267 40.5398C154.912 41.0852 153.327 41.358 151.511 41.358ZM164.005 48.3636V21.3636H171.01V24.7898H171.164C171.419 24.125 171.794 23.5156 172.289 22.9616C172.783 22.3991 173.397 21.9517 174.13 21.6193C174.863 21.2784 175.715 21.108 176.686 21.108C177.982 21.108 179.213 21.4531 180.381 22.1435C181.557 22.8338 182.512 23.9205 183.245 25.4034C183.986 26.8864 184.357 28.8125 184.357 31.1818C184.357 33.4489 184.003 35.3281 183.296 36.8196C182.597 38.3111 181.659 39.4233 180.483 40.1562C179.316 40.8892 178.033 41.2557 176.635 41.2557C175.715 41.2557 174.892 41.1065 174.168 40.8082C173.452 40.5014 172.838 40.0881 172.327 39.5682C171.824 39.0398 171.436 38.4432 171.164 37.7784H171.061V48.3636H164.005ZM170.908 31.1818C170.908 32.1364 171.032 32.9631 171.279 33.6619C171.534 34.3523 171.892 34.8892 172.353 35.2727C172.821 35.6477 173.38 35.8352 174.027 35.8352C174.675 35.8352 175.225 35.652 175.676 35.2855C176.137 34.9105 176.486 34.3778 176.725 33.6875C176.972 32.9886 177.096 32.1534 177.096 31.1818C177.096 30.2102 176.972 29.3793 176.725 28.6889C176.486 27.9901 176.137 27.4574 175.676 27.0909C175.225 26.7159 174.675 26.5284 174.027 26.5284C173.38 26.5284 172.821 26.7159 172.353 27.0909C171.892 27.4574 171.534 27.9901 171.279 28.6889C171.032 29.3793 170.908 30.2102 170.908 31.1818ZM204.802 14.2557L206.54 18.9602C206.012 19.3352 205.45 19.6293 204.853 19.8423C204.256 20.0469 203.511 20.1918 202.616 20.277C201.721 20.3537 200.558 20.392 199.126 20.392C197.506 20.392 196.202 20.5795 195.214 20.9545C194.225 21.3295 193.479 21.9645 192.977 22.8594C192.474 23.7543 192.137 24.9773 191.967 26.5284H192.12C192.657 25.3523 193.424 24.4105 194.421 23.7031C195.427 22.9957 196.79 22.642 198.512 22.642C200.276 22.642 201.798 23.017 203.076 23.767C204.354 24.5085 205.335 25.5526 206.016 26.8991C206.707 28.2457 207.052 29.8267 207.052 31.642C207.052 33.6023 206.647 35.3111 205.837 36.7685C205.028 38.2259 203.864 39.3551 202.347 40.1562C200.83 40.9574 199.006 41.358 196.876 41.358C194.745 41.358 192.921 40.9403 191.404 40.1051C189.887 39.2699 188.724 38.0426 187.914 36.4233C187.104 34.804 186.7 32.8182 186.7 30.4659V29.1875C186.7 24.2102 187.735 20.571 189.806 18.2699C191.886 15.9687 194.907 14.8182 198.87 14.8182C199.79 14.8182 200.626 14.8182 201.376 14.8182C202.134 14.8182 202.799 14.7798 203.37 14.7031C203.95 14.6264 204.427 14.4773 204.802 14.2557ZM196.927 36.142C197.523 36.142 198.039 35.9801 198.474 35.6562C198.908 35.3239 199.245 34.8466 199.484 34.2244C199.722 33.5937 199.842 32.8352 199.842 31.9489C199.842 31.0455 199.722 30.2784 199.484 29.6477C199.245 29.017 198.908 28.5355 198.474 28.2031C198.039 27.8707 197.523 27.7045 196.927 27.7045C196.458 27.7045 196.036 27.7983 195.661 27.9858C195.286 28.1733 194.967 28.4503 194.702 28.8168C194.447 29.1747 194.251 29.6179 194.114 30.1463C193.978 30.6662 193.91 31.267 193.91 31.9489C193.91 33.2784 194.174 34.3097 194.702 35.0426C195.239 35.7756 195.981 36.142 196.927 36.142ZM214.32 48.3636C213.51 48.3636 212.739 48.2997 212.006 48.1719C211.273 48.0526 210.629 47.8864 210.075 47.6733L211.609 42.6619C212.189 42.8665 212.717 42.9986 213.195 43.0582C213.68 43.1179 214.094 43.0838 214.435 42.956C214.784 42.8281 215.036 42.5852 215.189 42.2273L215.342 41.8693L208.439 21.3636H215.803L218.973 34.9659H219.178L222.399 21.3636H229.814L222.655 42.6364C222.297 43.7188 221.777 44.6903 221.095 45.5511C220.422 46.4205 219.536 47.1065 218.436 47.6094C217.337 48.1122 215.964 48.3636 214.32 48.3636ZM231.821 48.3636V21.3636H238.827V24.7898H238.98C239.236 24.125 239.611 23.5156 240.105 22.9616C240.599 22.3991 241.213 21.9517 241.946 21.6193C242.679 21.2784 243.531 21.108 244.503 21.108C245.798 21.108 247.03 21.4531 248.197 22.1435C249.374 22.8338 250.328 23.9205 251.061 25.4034C251.803 26.8864 252.173 28.8125 252.173 31.1818C252.173 33.4489 251.82 35.3281 251.112 36.8196C250.413 38.3111 249.476 39.4233 248.3 40.1562C247.132 40.8892 245.849 41.2557 244.452 41.2557C243.531 41.2557 242.709 41.1065 241.984 40.8082C241.268 40.5014 240.655 40.0881 240.143 39.5682C239.641 39.0398 239.253 38.4432 238.98 37.7784H238.878V48.3636H231.821ZM238.724 31.1818C238.724 32.1364 238.848 32.9631 239.095 33.6619C239.351 34.3523 239.709 34.8892 240.169 35.2727C240.638 35.6477 241.196 35.8352 241.844 35.8352C242.491 35.8352 243.041 35.652 243.493 35.2855C243.953 34.9105 244.303 34.3778 244.541 33.6875C244.788 32.9886 244.912 32.1534 244.912 31.1818C244.912 30.2102 244.788 29.3793 244.541 28.6889C244.303 27.9901 243.953 27.4574 243.493 27.0909C243.041 26.7159 242.491 26.5284 241.844 26.5284C241.196 26.5284 240.638 26.7159 240.169 27.0909C239.709 27.4574 239.351 27.9901 239.095 28.6889C238.848 29.3793 238.724 30.2102 238.724 31.1818ZM269.448 21.3636V26.6307H261.931V41H255.13V21.3636H269.448ZM280.957 41.358C278.86 41.358 277.053 40.9574 275.536 40.1562C274.028 39.3466 272.864 38.1875 272.046 36.679C271.237 35.1619 270.832 33.3466 270.832 31.233C270.832 29.2045 271.241 27.4318 272.059 25.9148C272.877 24.3977 274.032 23.2173 275.523 22.3736C277.015 21.5298 278.775 21.108 280.803 21.108C282.286 21.108 283.629 21.3381 284.83 21.7983C286.032 22.2585 287.059 22.9276 287.911 23.8054C288.763 24.6747 289.42 25.7315 289.88 26.9759C290.34 28.2202 290.57 29.6222 290.57 31.1818V32.8182H273.031V28.9318H284.076C284.067 28.3693 283.923 27.875 283.641 27.4489C283.369 27.0142 282.998 26.6776 282.529 26.4389C282.069 26.1918 281.545 26.0682 280.957 26.0682C280.386 26.0682 279.862 26.1918 279.384 26.4389C278.907 26.6776 278.523 27.0099 278.234 27.4361C277.952 27.8622 277.803 28.3608 277.786 28.9318V33.125C277.786 33.7557 277.918 34.3182 278.183 34.8125C278.447 35.3068 278.826 35.6946 279.32 35.9759C279.815 36.2571 280.411 36.3977 281.11 36.3977C281.596 36.3977 282.039 36.3295 282.44 36.1932C282.849 36.0568 283.198 35.8608 283.488 35.6051C283.778 35.3409 283.991 35.0256 284.127 34.6591H290.57C290.349 36.0227 289.825 37.2074 288.998 38.2131C288.171 39.2102 287.076 39.9858 285.712 40.5398C284.357 41.0852 282.772 41.358 280.957 41.358ZM293.45 48.3636V21.3636H300.456V24.7898H300.609C300.865 24.125 301.24 23.5156 301.734 22.9616C302.228 22.3991 302.842 21.9517 303.575 21.6193C304.308 21.2784 305.16 21.108 306.132 21.108C307.427 21.108 308.659 21.4531 309.826 22.1435C311.002 22.8338 311.957 23.9205 312.69 25.4034C313.431 26.8864 313.802 28.8125 313.802 31.1818C313.802 33.4489 313.449 35.3281 312.741 36.8196C312.042 38.3111 311.105 39.4233 309.929 40.1562C308.761 40.8892 307.478 41.2557 306.081 41.2557C305.16 41.2557 304.338 41.1065 303.613 40.8082C302.897 40.5014 302.284 40.0881 301.772 39.5682C301.27 39.0398 300.882 38.4432 300.609 37.7784H300.507V48.3636H293.45ZM300.353 31.1818C300.353 32.1364 300.477 32.9631 300.724 33.6619C300.98 34.3523 301.338 34.8892 301.798 35.2727C302.267 35.6477 302.825 35.8352 303.473 35.8352C304.12 35.8352 304.67 35.652 305.122 35.2855C305.582 34.9105 305.931 34.3778 306.17 33.6875C306.417 32.9886 306.541 32.1534 306.541 31.1818C306.541 30.2102 306.417 29.3793 306.17 28.6889C305.931 27.9901 305.582 27.4574 305.122 27.0909C304.67 26.7159 304.12 26.5284 303.473 26.5284C302.825 26.5284 302.267 26.7159 301.798 27.0909C301.338 27.4574 300.98 27.9901 300.724 28.6889C300.477 29.3793 300.353 30.2102 300.353 31.1818Z" fill="black"/>
<defs>
<clipPath id="clip0_42_6">
<rect width="56" height="56" fill="white"/>
</clipPath>
</defs>
</svg>
